<svg width="12" height="12" viewBox="0 0 12 12" fill="none" xmlns="http://www.w3.org/2000/svg">
<path fill-rule="evenodd" clip-rule="evenodd" d="M0 6C0 2.69351 2.69351 0 6 0C9.30649 0 12 2.69351 12 6C12 9.30649 9.30649 12 6 12C2.69351 12 0 9.30649 0 6ZM11.0769 6.00002C11.0769 3.19112 8.80891 0.923096 6.00002 0.923096C3.19112 0.923096 0.923096 3.19112 0.923096 6.00002C0.923096 8.80891 3.19112 11.0769 6.00002 11.0769C8.80891 11.0769 11.0769 8.80891 11.0769 6.00002ZM5.53845 2.76923V3.6923H6.46153V2.76923H5.53845ZM5.53845 9.23074V4.61536H6.46153V9.23074H5.53845Z" fill="#99A4C2"/>
</svg>
